<?xml version="1.0" encoding="UTF-8" standalone="no"?>
<!-- Created with Inkscape (http://www.inkscape.org/) -->

<svg
   xmlns:dc="http://purl.org/dc/elements/1.1/"
   xmlns:cc="http://creativecommons.org/ns#"
   xmlns:rdf="http://www.w3.org/1999/02/22-rdf-syntax-ns#"
   xmlns:svg="http://www.w3.org/2000/svg"
   xmlns="http://www.w3.org/2000/svg"
   xmlns:sodipodi="http://sodipodi.sourceforge.net/DTD/sodipodi-0.dtd"
   xmlns:inkscape="http://www.inkscape.org/namespaces/inkscape"
   width="247.28799"
   height="105.97147"
   viewBox="0 0 247.28799 105.97147"
   id="svg2"
   version="1.1"
   inkscape:version="0.48.4 r9939"
   sodipodi:docname="magnabyte_color.svg"
   inkscape:export-filename="/Users/omkbron/Documents/magnabyte_color.png"
   inkscape:export-xdpi="999.95453"
   inkscape:export-ydpi="999.95453">
  <defs
     id="defs4" />
  <sodipodi:namedview
     id="base"
     pagecolor="#ffffff"
     bordercolor="#666666"
     borderopacity="1.0"
     inkscape:pageopacity="0.0"
     inkscape:pageshadow="2"
     inkscape:zoom="2.8284271"
     inkscape:cx="169.78173"
     inkscape:cy="34.207289"
     inkscape:document-units="px"
     inkscape:current-layer="layer2"
     showgrid="false"
     showguides="true"
     inkscape:guide-bbox="true"
     inkscape:window-width="1366"
     inkscape:window-height="739"
     inkscape:window-x="1366"
     inkscape:window-y="0"
     inkscape:window-maximized="1"
     units="px"
     inkscape:snap-global="false"
     fit-margin-top="0"
     fit-margin-left="0"
     fit-margin-right="0"
     fit-margin-bottom="0">
    <sodipodi:guide
       position="99.34024,38.73861"
       orientation="0,1"
       id="guide4192" />
  </sodipodi:namedview>
  <metadata
     id="metadata7">
    <rdf:RDF>
      <cc:Work
         rdf:about="">
        <dc:format>image/svg+xml</dc:format>
        <dc:type
           rdf:resource="http://purl.org/dc/dcmitype/StillImage" />
        <dc:title />
      </cc:Work>
    </rdf:RDF>
  </metadata>
  <g
     inkscape:groupmode="layer"
     id="layer2"
     inkscape:label="Capa 2"
     style="display:inline"
     transform="translate(-78.31601,-874.34805)">
    <path
       style="fill:#b5b5b5;fill-opacity:1;fill-rule:evenodd;stroke:#b5b5b5;stroke-width:0.5;stroke-linecap:butt;stroke-linejoin:miter;stroke-miterlimit:4;stroke-opacity:1;stroke-dasharray:none"
       clip-path="none"
       d="m 242.1875,916.33398 -12.82617,0.0645 -0.21094,24.87695 12.27539,0.004 c 8.89135,-1.21099 11.12428,-11.69055 2.16602,-13.73828 8.45176,-2.9487 4.94105,-11.43356 -1.4043,-11.20704 z m -5.08984,3.44141 c 0.98932,0.004 2.23634,0.10277 3.26953,0.47852 2.51077,1.0503 2.88768,5.314 -0.41407,6.56836 -2.39096,0.74329 -5.08593,0.48242 -5.08593,0.48242 l 0.50976,-7.44336 c 0,0 0.73138,-0.0903 1.72071,-0.0859 z m -0.45899,9.38086 c 1.10258,0.0205 2.45504,0.16483 3.45508,0.66211 2.73225,1.6343 1.60199,6.48182 -1.25,6.90039 -0.94876,0.2812 -4.93555,0.30273 -4.93555,0.30273 l 0.77539,-7.78125 c 0,0 0.85251,-0.10447 1.95508,-0.084 z"
       id="path3380"
       inkscape:connector-curvature="0" />
    <path
       style="fill:#141487;fill-opacity:1;fill-rule:evenodd;stroke:#141487;stroke-width:0.5;stroke-linecap:butt;stroke-linejoin:miter;stroke-miterlimit:4;stroke-opacity:1;stroke-dasharray:none"
       d="m 83.30788,889.20113 1.553891,-8.32728 9.107429,-0.0338 -1.53113,8.36245 z"
       id="path4204"
       inkscape:connector-curvature="0"
       sodipodi:nodetypes="ccccc" />
    <path
       style="fill:#141487;fill-opacity:1;fill-rule:evenodd;stroke:#141487;stroke-width:0.5;stroke-linecap:butt;stroke-linejoin:miter;stroke-miterlimit:4;stroke-opacity:1;stroke-dasharray:none"
       d="m 95.653651,874.60357 -1.084521,5.70688 6.42898,-0.006 1.10794,-5.70463 z"
       id="path4206"
       inkscape:connector-curvature="0"
       sodipodi:nodetypes="ccccc" />
    <path
       style="fill:#b5b5b5;fill-opacity:1;fill-rule:evenodd;stroke:#b5b5b5;stroke-width:0.5;stroke-linecap:butt;stroke-linejoin:miter;stroke-miterlimit:4;stroke-opacity:1;stroke-dasharray:none;display:inline"
       d="m 211.52734,916.24805 -14.63476,25.0625 8.29297,0 2.68359,-4.08594 11.03711,-0.0605 1.40234,4.08594 8.29493,0.0605 -8.41602,-25.0625 -8.66016,0 z m 3.58008,5.44336 2.6211,10.7207 -8.30469,-0.002 5.68359,-10.71875 z"
       id="path4220-5"
       inkscape:connector-curvature="0" />
    <path
       style="fill:#141487;fill-opacity:1;fill-rule:evenodd;stroke:#141487;stroke-width:0.5;stroke-linecap:butt;stroke-linejoin:miter;stroke-miterlimit:4;stroke-opacity:1;stroke-dasharray:none"
       d="m 90.73698,901.73474 c 98.02641,-48.2207 187.95463,20.43949 106.95926,78.33478 73.72003,-45.21938 22.1949,-135.52542 -104.80701,-90.44217 z"
       id="path3402"
       inkscape:connector-curvature="0"
       sodipodi:nodetypes="cccc" />
    <path
       style="fill:#b5b5b5;fill-opacity:1;fill-rule:evenodd;stroke:#b5b5b5;stroke-width:0.5;stroke-linecap:butt;stroke-linejoin:miter;stroke-miterlimit:4;stroke-opacity:1;stroke-dasharray:none"
       d="m 78.56601,941.33737 2.92716,-25.06383 8.53755,0 5.97629,10.1231 9.14739,-10.1231 8.23264,0 -3.94004,25.06383 -8.37843,0 2.55519,-14.55814 -8.16559,9.98444 -6.15924,-9.81819 -1.95144,14.39189 z"
       id="path4216"
       inkscape:connector-curvature="0"
       sodipodi:nodetypes="ccccccccccccc" />
    <path
       style="fill:#b5b5b5;fill-opacity:1;fill-rule:evenodd;stroke:#b5b5b5;stroke-width:0.5;stroke-linecap:butt;stroke-linejoin:miter;stroke-miterlimit:4;stroke-opacity:1;stroke-dasharray:none"
       d="m 158.97884,935.22375 0.14513,-3.09475 -2.86618,0.061 0.24393,-4.69565 9.26935,0 -1.08789,12.36063 c -31.35023,9.85298 -30.37014,-31.85695 2.18356,-22.24661 l -0.66882,5.67818 c -20.74159,-7.01301 -20.51254,14.53584 -8.40661,12.2497 z"
       id="path4224"
       inkscape:connector-curvature="0"
       sodipodi:nodetypes="cccccccccc" />
    <path
       style="fill:#b5b5b5;fill-opacity:1;fill-rule:evenodd;stroke:#b5b5b5;stroke-width:0.5;stroke-linecap:butt;stroke-linejoin:miter;stroke-miterlimit:4;stroke-opacity:1;stroke-dasharray:none"
       d="m 167.89621,941.30612 1.76634,-25.05847 8.80032,0.0259 10.10364,13.11506 1.89814,-13.11506 8.70882,0 -2.93659,25.03761 -8.09508,0.0152 -10.68228,-12.89503 -0.89481,12.87483 z"
       id="path3355"
       inkscape:connector-curvature="0"
       sodipodi:nodetypes="ccccccccccc" />
    <path
       style="fill:#b5b5b5;fill-opacity:1;fill-rule:evenodd;stroke:#b5b5b5;stroke-width:0.5;stroke-linecap:butt;stroke-linejoin:miter;stroke-miterlimit:4;stroke-opacity:1;stroke-dasharray:none"
       d="m 250.31088,916.27354 8.02702,13.6319 -1.20491,11.43193 8.80829,0 0.95067,-11.43377 11.87113,-13.63006 -8.78121,-0.0312 -6.14418,7.39932 -4.06869,-7.36807 z"
       id="path3357"
       inkscape:connector-curvature="0"
       sodipodi:nodetypes="cccccccccc" />
    <path
       style="fill:#b5b5b5;fill-opacity:1;fill-rule:evenodd;stroke:#b5b5b5;stroke-width:0.5;stroke-linecap:butt;stroke-linejoin:miter;stroke-miterlimit:4;stroke-opacity:1;stroke-dasharray:none"
       d="m 278.7063,916.27354 -0.84792,5.82253 8.56141,-0.0129 -2.17109,19.25424 7.7737,-4e-5 1.92165,-19.25758 8.1252,0.0163 0.65959,-5.82253 z"
       id="path3359"
       inkscape:connector-curvature="0"
       sodipodi:nodetypes="ccccccccc" />
    <path
       style="fill:#b5b5b5;fill-opacity:1;fill-rule:evenodd;stroke:#b5b5b5;stroke-width:0.5;stroke-linecap:butt;stroke-linejoin:miter;stroke-miterlimit:4;stroke-opacity:1;stroke-dasharray:none"
       d="m 306.5285,916.27354 -2.50432,25.06383 18.72442,0 0.2738,-4.97614 -9.9457,0.0148 0.51697,-5.1501 9.29638,-0.0312 0.21666,-4.70334 -9.06735,-0.0239 0.44893,-4.79226 10.44498,-1e-5 0.42073,-5.40167 z"
       id="path3361"
       inkscape:connector-curvature="0"
       sodipodi:nodetypes="ccccccccccccc" />
    <path
       style="fill:none;stroke:#000000;stroke-width:1px;stroke-linecap:butt;stroke-linejoin:miter;stroke-opacity:1"
       d="m 127.875,904.7372 0,0"
       id="path4242"
       inkscape:connector-type="polyline"
       inkscape:connector-curvature="0" />
    <path
       inkscape:connector-curvature="0"
       id="path4190"
       d="m 124.73231,916.27611 -14.63476,25.0625 8.29297,0 2.68359,-4.08594 11.03711,-0.0605 1.40234,4.08594 8.29493,0.0605 -8.41602,-25.0625 -8.66016,0 z m 3.58008,5.44336 2.6211,10.7207 -8.30469,-0.002 5.68359,-10.71875 z"
       style="fill:#b5b5b5;fill-opacity:1;fill-rule:evenodd;stroke:#b5b5b5;stroke-width:0.5;stroke-linecap:butt;stroke-linejoin:miter;stroke-miterlimit:4;stroke-opacity:1;stroke-dasharray:none;display:inline" />
  </g>
</svg>
